@startuml

left to right direction
hide empty members
skinparam BackgroundColor transparent

class User <<struct>> {
  + id: Uuid
  + credentials: UserCredentials
}

class UserCredentials <<struct>> {
  + username: String
  + password: String
}

UserCredentials "1" *-- "1" User

class Listener <<struct>> {
  + metadata: ListenerMetadata
  + subscripion: ListenerSubscription
  + preferences: ListenerPreferences
}

Listener <|-- User
Listener "1" ..> "n" Playlist: owns
Listener "n" ..> "m" Song: favourites
Listener "n" ..> "m" Playlist: favourites
Listener "n" ..> "m" Artist: favourites

class ListenerMetadata <<struct>> {
  + email: String
  + dateOfBirth: Date
  + biography: Option<String>
  + gender: String
  + location: String
  + language: String
}

ListenerMetadata "1" *-- "1" Listener

class ListenerContent <<struct>> {
  + playlistIds: Vec<Uuid>
  + favourites: ListenerFavourites
}

ListenerContent "1" *-- "1" Listener

class ListenerFavourites <<struct>> {
  + songIds: Vec<Uuid>
  + playlistIds: Vec<Uuid>
  + artistIds: Vec<Uuid>
}

ListenerFavourites "1" *-- "1" ListenerContent

enum ListenerSubscription <<enum>> {
}

ListenerSubscription "1" *-- "1" Listener

class Free <<variant>> {
}

Free -- ListenerSubscription

class Premium <<variant>> {
  + started: DateTime
  + expires: DateTime
}

Premium -- ListenerSubscription

class Cancelled <<variant>> {
  + started: DateTime
  + cancelled: DateTime
}

Cancelled -- ListenerSubscription

class Expired <<variant>> {
  + started: DateTime
  + expired: DateTime
}

Expired -- ListenerSubscription

class ListenerPreferences <<struct>> {
  + darkModeEnabled: bool
  + explicitContentEnabled: bool
  + autoplayEnabled: bool
}

ListenerPreferences "1" *-- "1" Listener

class Artist <<struct>> {
  + metadata: ArtistMetadata
  + content: ArtistContent
  + analytics: ArtistAnalytics
}

Artist <|-- User
Artist "n" ..> "m" Song: creates
Artist "n" ..> "m" Playlist: publishes

class ArtistMetadata <<struct>> {
  + email: String
  + dateOfBirth: Date
  + displayName: String
  + biography: Option<String>
  + socialLinks: Vec<String>
  + genres: Vec<String>
  + avatarUri: String
}

ArtistMetadata "1" *-- "1" Artist

class ArtistContent <<struct>> {
  + singleIds: Vec<Uuid>
  + albumIds: Vec<Uuid>
}

ArtistContent "1" *-- "1" Artist

class ArtistAnalytics <<struct>> {
  + playCount: usize
  + favouritesCount: usize
}

ArtistAnalytics "1" *-- "1" Artist

class Song <<struct>> {
  + id: Uuid
  + metadata: SongMetadata
  + audio: SongAudio
  + analytics: SongAnalytics
}

class SongMetadata <<struct>> {
  + title: String
  + artistIds: Vec<Uuid>
  + lyrics: Option<String>
  + duration: Duration
}

SongMetadata "1" *-- "1" Song

class SongAudio <<struct>> {
  + basicUri: String
  + premiumUri: String
}

SongAudio "1" *-- "1" Song

class SongAnalytics <<struct>> {
  + playCount: usize
  + favouritesCount: usize
}

SongAnalytics "1" *-- "1" Song

class Playlist <<struct>> {
  + id: Uuid
  + trackIds: Vec<Uuid>
  + metadata: PlaylistMetadata
  + analytics: PlaylistAnalytics
}

Playlist "n" ..> "m" Song: contains

class PlaylistMetadata <<struct>> {
  + title: String
  + artistIds: Vec<Uuid>
  + ownerId: Uuid
  + isPublic: bool
}

PlaylistMetadata "1" *-- "1" Playlist

class PlaylistAnalytics <<struct>> {
  + playCount: usize
  + favouritesCount: usize
}

PlaylistAnalytics "1" *-- "1" Playlist

@enduml
